<?xml version="1.0" encoding="UTF-8"?>
<svg width="24px" height="24px" viewBox="0 0 24 24" version="1.1" xmlns="http://www.w3.org/2000/svg" xmlns:xlink="http://www.w3.org/1999/xlink">
    <title>手机</title>
    <g id="手机" stroke="none" stroke-width="1" fill="none" fill-rule="evenodd">
        <path d="M15.75,2.25 C17.4068542,2.25 18.75,3.59314575 18.75,5.25 L18.75,18.75 C18.75,20.4068542 17.4068542,21.75 15.75,21.75 L8.25,21.75 C6.59314575,21.75 5.25,20.4068542 5.25,18.75 L5.25,5.25 C5.25,3.59314575 6.59314575,2.25 8.25,2.25 L15.75,2.25 Z M12,18.75 C11.3786797,18.75 10.875,19.2536797 10.875,19.875 C10.875,20.4963203 11.3786797,21 12,21 C12.6213203,21 13.125,20.4963203 13.125,19.875 C13.125,19.2536797 12.6213203,18.75 12,18.75 Z M15,4.5 L9,4.5 C8.22030388,4.5 7.57955132,5.09488808 7.50686658,5.85553999 L7.5,6 L7.5,16.5 C7.5,17.2796961 8.09488808,17.9204487 8.85553999,17.9931334 L9,18 L15,18 C15.7796961,18 16.4204487,17.4051119 16.4931334,16.64446 L16.5,16.5 L16.5,6 C16.5,5.17157288 15.8284271,4.5 15,4.5 Z" id="形状结合" fill="#82778C"></path>
    </g>
</svg>