<?xml version="1.0" encoding="UTF-8"?>
<svg width="24px" height="24px" viewBox="0 0 24 24" version="1.1" xmlns="http://www.w3.org/2000/svg" xmlns:xlink="http://www.w3.org/1999/xlink">
    <title>设置备份</title>
    <g id="设置备份" stroke="none" stroke-width="1" fill="none" fill-rule="evenodd">
        <path d="M17.6738662,3.16347829 L17.6064893,3.24935221 C16.9629212,4.12947277 17.0386351,5.37137318 17.8336309,6.16636906 C18.6549717,6.98770983 19.9533272,7.04130702 20.8369239,6.32716063 C21.5023202,7.36065499 21.9916946,8.52091632 22.2612265,9.76314559 C21.13043,9.8821991 20.25,10.8382818 20.25,12 C20.25,13.1617182 21.13043,14.1178009 22.260439,14.2373972 C21.9920241,15.4781123 21.5027951,16.6383549 20.8365132,17.6738794 C19.9543072,16.9586526 18.6552817,17.0119802 17.8336309,17.8336309 C17.0121762,18.6550857 16.9586781,19.9536875 17.6731366,20.8372916 C16.6383451,21.5027993 15.478107,21.9920252 14.2359231,22.2614285 C14.1181165,21.1307207 13.1619099,20.25 12,20.25 C10.8380901,20.25 9.88188349,21.1307207 9.76254365,22.2609986 C8.52131306,21.9917807 7.36139611,21.5026327 6.32613377,20.8365217 C7.04132188,19.9536875 6.98782378,18.6550857 6.16636906,17.8336309 C5.34491433,17.0121762 4.04631254,16.9586781 3.16270841,17.6731366 C2.49720488,16.6383549 2.00797591,15.4781123 1.73857149,14.2359231 C2.8693413,14.1180492 3.75,13.161869 3.75,12 C3.75,10.838131 2.8693413,9.88195077 1.73912071,9.76255625 C2.00821932,8.52131306 2.49736725,7.36139611 3.16347829,6.32613377 C4.04631254,7.04132188 5.34491433,6.98782378 6.16636906,6.16636906 C6.98782378,5.34491433 7.04132188,4.04631254 6.32686336,3.16270841 C7.36139611,2.49736725 8.52131306,2.00821932 9.76314559,1.73877353 C9.88195077,2.8693413 10.838131,3.75 12,3.75 C13.161869,3.75 14.1180492,2.8693413 14.2374438,1.73912071 C15.478107,2.00797477 16.6383451,2.49720073 17.6738662,3.16347829 Z M12,7.5 C9.51471863,7.5 7.5,9.51471863 7.5,12 C7.5,14.4852814 9.51471863,16.5 12,16.5 C14.4852814,16.5 16.5,14.4852814 16.5,12 C16.5,9.51471863 14.4852814,7.5 12,7.5 Z" id="形状结合" fill="#82778C"></path>
    </g>
</svg>