<?xml version="1.0" encoding="UTF-8"?>
<svg width="24px" height="24px" viewBox="0 0 24 24" version="1.1" xmlns="http://www.w3.org/2000/svg" xmlns:xlink="http://www.w3.org/1999/xlink">
    <title>链接</title>
    <g id="链接" stroke="none" stroke-width="1" fill="none" fill-rule="evenodd">
        <path d="M9.42675258,8.47788568 C9.81660064,9.15312233 9.62178873,10.0054744 8.99938722,10.4487472 L8.87771447,10.5269238 L6.27963826,12.0269238 C4.84476039,12.8553509 4.35313493,14.6901221 5.18156205,16.125 C5.98040249,17.5086322 7.71498891,18.0151841 9.1244352,17.3068022 L9.27963826,17.2230762 L11.8777145,15.7230762 C12.5951534,15.3088626 13.512539,15.5546754 13.9267526,16.2721143 C14.3166006,16.947351 14.1217887,17.799703 13.4993872,18.2429758 L13.3777145,18.3211524 L10.7796383,19.8211524 C7.90988252,21.4780067 4.24034009,20.4947557 2.58348584,17.625 C0.964287368,14.820466 1.86655299,11.2520861 4.58690525,9.54490073 L4.77963826,9.42884758 L7.37771447,7.92884758 C8.09515341,7.51463401 9.01253902,7.76044675 9.42675258,8.47788568 Z M22.0690574,6.375 C23.6882559,9.17953402 22.7859903,12.7479139 20.065638,14.4550993 L19.872905,14.5711524 L17.2748288,16.0711524 C16.5573899,16.485366 15.6400042,16.2395533 15.2257907,15.5221143 C14.8359426,14.8468777 15.0307545,13.9945256 15.653156,13.5512528 L15.7748288,13.4730762 L18.372905,11.9730762 C19.8077829,11.1446491 20.2994083,9.30987787 19.4709812,7.875 C18.6721408,6.49136777 16.9375544,5.9848159 15.5281081,6.6931978 L15.372905,6.77692379 L12.7748288,8.27692379 C12.0573899,8.69113735 11.1400042,8.44532462 10.7257907,7.72788568 C10.3359426,7.05264904 10.5307545,6.200297 11.153156,5.75702421 L11.2748288,5.67884758 L13.872905,4.17884758 C16.7426607,2.52199333 20.4122032,3.50524426 22.0690574,6.375 Z M16.872905,9.375 C17.2627531,10.0502366 17.0679411,10.9025887 16.4455396,11.3458615 L16.3238669,11.4240381 L9.82867637,15.1740381 C9.11123743,15.5882517 8.19385182,15.3424389 7.77963826,14.625 C7.3897902,13.9497634 7.58460212,13.0974113 8.20700362,12.6541385 L8.32867637,12.5759619 L14.8238669,8.82596189 C15.5413058,8.41174833 16.4586914,8.65756106 16.872905,9.375 Z" id="形状结合" fill="#82778C" fill-rule="nonzero"></path>
    </g>
</svg>