<?xml version="1.0" encoding="UTF-8"?>
<svg width="24px" height="24px" viewBox="0 0 24 24" version="1.1" xmlns="http://www.w3.org/2000/svg" xmlns:xlink="http://www.w3.org/1999/xlink">
    <title>主页</title>
    <g id="主页" stroke="none" stroke-width="1" fill="none" fill-rule="evenodd">
        <path d="M13.0090092,7.8700002 C13.0442245,7.9020141 13.0778962,7.93568583 13.1099101,7.97090112 L19.2721339,14.7493473 C19.4169992,14.9086991 19.4863739,15.1226349 19.4625916,15.3366755 L18.8982614,20.4156473 C18.813856,21.1752963 18.1717596,21.75 17.4074358,21.75 L14.25,21.75 L14.25,16.5 C14.25,16.1203042 13.9678461,15.806509 13.6017706,15.7568466 L13.5,15.75 L10.5,15.75 C10.1203042,15.75 9.80650904,16.0321539 9.75684662,16.3982294 L9.75,16.5 L9.75,21.75 L6.59256419,21.75 C5.82824036,21.75 5.18614403,21.1752963 5.10173859,20.4156473 L4.5,15 L10.8900899,7.97090112 C11.4473503,7.35791469 12.3960228,7.31273981 13.0090092,7.8700002 Z M13.8763752,2.43798564 L13.9445436,2.50384398 L23.4138191,12.6471022 C23.8848615,13.1517905 23.8575862,13.9427766 23.3528978,14.4138191 C22.8818554,14.8534587 22.1614157,14.8590081 21.6844757,14.4474638 L21.5861809,14.3528978 L12.1705796,4.26562381 C12.0864648,4.18711674 11.9625865,4.17782047 11.8691115,4.23531547 L11.8172362,4.27780807 L2.41381909,14.3528978 C1.94277663,14.8575862 1.15179053,14.8848615 0.647102187,14.4138191 C0.176059732,13.9741795 0.120897013,13.2558334 0.498610467,12.7516775 L0.586180915,12.6471022 L9.98959801,2.57201244 C11.0258914,1.46169808 12.7660608,1.40169224 13.8763752,2.43798564 Z" id="形状结合" fill="#82778C"></path>
    </g>
</svg>